<?xml version="1.0" encoding="utf-8"?>
<!-- Generator: Adobe Illustrator 24.0.3, SVG Export Plug-In . SVG Version: 6.00 Build 0)  -->
<svg version="1.1" id="Layer_1" xmlns="http://www.w3.org/2000/svg" xmlns:xlink="http://www.w3.org/1999/xlink" x="0px" y="0px"
	 width="20px" height="20px" viewBox="0 0 20 20" style="enable-background:new 0 0 20 20;" xml:space="preserve">
<style type="text/css">
	.st0{fill:#FFFFFF;}
</style>
<path id="Path_609" class="st0" d="M15.4,17c0.9,0,1.6-0.7,1.6-1.7v-2.2c0-0.2-0.2-0.4-0.4-0.5l-3.3-1.1c-0.2-0.1-0.3,0-0.5,0.1
	l-1.4,0.9c-1.7-0.9-3-2.3-3.9-4l0.9-1.4C8.5,7,8.6,6.8,8.5,6.7L7.4,3.4C7.3,3.2,7.1,3,6.9,3H4.6C3.7,3,3,3.7,3,4.6l0,0
	C3,11,9,17,15.4,17z"/>
</svg>
