<?xml version="1.0" encoding="utf-8"?>
<!-- Generator: Adobe Illustrator 24.0.3, SVG Export Plug-In . SVG Version: 6.00 Build 0)  -->
<svg version="1.1" id="Layer_1" xmlns="http://www.w3.org/2000/svg" xmlns:xlink="http://www.w3.org/1999/xlink" x="0px" y="0px"
	 width="20px" height="20px" viewBox="0 0 20 20" style="enable-background:new 0 0 20 20;" xml:space="preserve">
<style type="text/css">
	.st0{fill:#FFFFFF;}
</style>
<g id="email" transform="translate(0 -80)">
	<g id="Group_101" transform="translate(10.606 82.028)">
		<g id="Group_100">
			<path id="Path_612" class="st0" d="M2,8.1l5.4,3.4v-7L2,8.1z"/>
		</g>
	</g>
	<g id="Group_103" transform="translate(0 82.028)">
		<g id="Group_102">
			<path id="Path_613" class="st0" d="M2,4.5v7l5.4-3.4L2,4.5z"/>
		</g>
	</g>
	<g id="Group_105" transform="translate(0.03 80)">
		<g id="Group_104">
			<path id="Path_614" class="st0" d="M17,4.5H3c-0.5,0-0.9,0.4-1,0.9l8,5.2l8-5.3C17.9,4.9,17.5,4.5,17,4.5z"/>
		</g>
	</g>
	<g id="Group_107" transform="translate(0.032 86.185)">
		<g id="Group_106">
			<path id="Path_615" class="st0" d="M11.7,4.5l-1.4,0.9c-0.2,0.1-0.4,0.1-0.6,0L8.3,4.5L2,8.5C2.1,9,2.5,9.3,3,9.3h14
				c0.5,0,0.9-0.4,1-0.8L11.7,4.5z"/>
		</g>
	</g>
</g>
</svg>
